<?xml version="1.0" encoding="utf-8"?>
<!-- Generator: Adobe Illustrator 22.1.0, SVG Export Plug-In . SVG Version: 6.00 Build 0)  -->
<svg version="1.1" id="Layer_1" xmlns="http://www.w3.org/2000/svg" xmlns:xlink="http://www.w3.org/1999/xlink" x="0px" y="0px"
	 viewBox="0 0 360 360" style="enable-background:new 0 0 360 360;" xml:space="preserve">
<style type="text/css">
	.st0{fill:none;stroke:#000000;stroke-width:7.6304;stroke-miterlimit:10;}
	.st1{fill:none;stroke:#000000;stroke-width:7.7271;stroke-miterlimit:10;}
	.st2{fill:none;stroke:#000000;stroke-width:2.1285;stroke-miterlimit:10;}
	.st3{fill:none;stroke:#000000;stroke-width:2.072;stroke-miterlimit:10;}
	.st4{fill:none;stroke:#000000;stroke-width:2.0723;stroke-miterlimit:10;}
</style>
<path class="st0" d="M166.4,97.9c0,0,0,69.4,0,113.3c0,1.1,0,40.6,0,40.6s-52,3.2-56.9-49.2"/>
<line class="st0" x1="181.1" y1="97.9" x2="181.1" y2="255.2"/>
<path class="st0" d="M137.9,85c8,0,37.4,0,52.9,0c14,0,36.2,9.3,36.2,34.7s-33.7,33.8-33.7,33.8"/>
<path class="st1" d="M192,251.9c17.5,0,50-13.2,50-49.2s-48.7-49.2-48.7-49.2"/>
<g>
	<path class="st2" d="M173.5,2"/>
	<polyline class="st2" points="173.5,2 145,5.4 141.1,35 124.4,36.6 121.5,55 	"/>
	<polyline class="st2" points="130.8,45.6 98.1,44.9 98.4,78.7 81.7,80.2 78.8,98.6 	"/>
	<polyline class="st2" points="79.2,97.8 50.7,101.2 46.9,130.8 30.1,132.4 27.3,150.8 	"/>
	<polyline class="st2" points="36.7,140.3 3.7,139.3 4.3,173.3 	"/>
</g>
<g>
	<path class="st2" d="M186.4,355.6"/>
	<polyline class="st2" points="186.4,355.6 214.9,352.2 218.8,322.5 235.5,321 238.4,302.6 	"/>
	<polyline class="st2" points="229.1,311.9 261.8,312.7 261.5,278.9 278.2,277.4 281.1,258.9 	"/>
	<polyline class="st2" points="280.7,259.8 309.2,256.4 313.1,226.7 329.8,225.2 332.6,206.8 	"/>
	<polyline class="st2" points="323.2,217.3 356.2,218.3 355.6,184.2 	"/>
</g>
<line class="st3" x1="347.6" y1="175.2" x2="178.8" y2="344.1"/>
<line class="st3" x1="179.6" y1="344.1" x2="11.9" y2="176.4"/>
<line class="st3" x1="11.7" y1="177.6" x2="180.9" y2="8.3"/>
<line class="st4" x1="180.1" y1="7.7" x2="348.3" y2="175.9"/>
</svg>
